<svg xmlns="http://www.w3.org/2000/svg" xmlns:xlink="http://www.w3.org/1999/xlink" contentStyleType="text/css" height="470px" preserveAspectRatio="none" style="width:506px;height:470px;background:#FFFFFF;" version="1.1" viewBox="0 0 506 470" width="506px" zoomAndPan="magnify"><defs/><g><ellipse cx="288.3901" cy="20" fill="#222222" rx="10" ry="10" style="stroke:#222222;stroke-width:1;"/><rect fill="#F1F1F1" height="33.9688" rx="12.5" ry="12.5" style="stroke:#181818;stroke-width:0.5;" width="275.9668" x="150.4067" y="50"/><text fill="#000000" font-family="sans-serif" font-size="12" lengthAdjust="spacing" textLength="255.9668" x="160.4067" y="71.1387">&#1054;&#1090;&#1082;&#1088;&#1099;&#1090;&#1100; &#1086;&#1082;&#1085;&#1086; "&#1055;&#1088;&#1086;&#1075;&#1088;&#1072;&#1084;&#1084;&#1085;&#1099;&#1081; &#1082;&#1086;&#1084;&#1087;&#1083;&#1077;&#1082;&#1089;"</text><rect fill="#F1F1F1" height="33.9688" rx="12.5" ry="12.5" style="stroke:#181818;stroke-width:0.5;" width="206.3105" x="185.2349" y="103.9688"/><text fill="#000000" font-family="sans-serif" font-size="12" lengthAdjust="spacing" textLength="186.3105" x="195.2349" y="125.1074">&#1042;&#1099;&#1073;&#1088;&#1072;&#1090;&#1100; &#1074;&#1082;&#1083;&#1072;&#1076;&#1082;&#1091; "&#1042;&#1086;&#1076;&#1080;&#1090;&#1077;&#1083;&#1080;"</text><rect fill="#F1F1F1" height="33.9688" rx="12.5" ry="12.5" style="stroke:#181818;stroke-width:0.5;" width="192.3066" x="192.2368" y="157.9375"/><text fill="#000000" font-family="sans-serif" font-size="12" lengthAdjust="spacing" textLength="172.3066" x="202.2368" y="179.0762">&#1053;&#1072;&#1078;&#1072;&#1090;&#1100; &#1082;&#1085;&#1086;&#1087;&#1082;&#1091; "&#1044;&#1086;&#1073;&#1072;&#1074;&#1080;&#1090;&#1100;"</text><rect fill="#F1F1F1" height="33.9688" rx="12.5" ry="12.5" style="stroke:#181818;stroke-width:0.5;" width="166.2617" x="205.2593" y="211.9063"/><text fill="#000000" font-family="sans-serif" font-size="12" lengthAdjust="spacing" textLength="146.2617" x="215.2593" y="233.0449">&#1042;&#1074;&#1086;&#1076; &#1076;&#1072;&#1085;&#1085;&#1099;&#1093; &#1074;&#1086;&#1076;&#1080;&#1090;&#1077;&#1083;&#1103;</text><polygon fill="#F1F1F1" points="229.6196,265.875,347.1606,265.875,359.1606,277.875,347.1606,289.875,229.6196,289.875,217.6196,277.875,229.6196,265.875" style="stroke:#181818;stroke-width:0.5;"/><text fill="#000000" font-family="sans-serif" font-size="11" lengthAdjust="spacing" textLength="117.541" x="229.6196" y="281.6831">&#1044;&#1072;&#1085;&#1085;&#1099;&#1077; &#1082;&#1086;&#1088;&#1088;&#1077;&#1082;&#1090;&#1085;&#1099;?</text><text fill="#000000" font-family="sans-serif" font-size="11" lengthAdjust="spacing" textLength="15.3345" x="202.2852" y="275.2808">&#1044;&#1072;</text><text fill="#000000" font-family="sans-serif" font-size="11" lengthAdjust="spacing" textLength="21.4468" x="359.1606" y="275.2808">&#1053;&#1077;&#1090;</text><rect fill="#F1F1F1" height="33.9688" rx="12.5" ry="12.5" style="stroke:#181818;stroke-width:0.5;" width="166.6719" x="78.8076" y="299.875"/><text fill="#000000" font-family="sans-serif" font-size="12" lengthAdjust="spacing" textLength="146.6719" x="88.8076" y="321.0137">&#1057;&#1086;&#1093;&#1088;&#1072;&#1085;&#1080;&#1090;&#1100; &#1079;&#1072;&#1087;&#1080;&#1089;&#1100; &#1074; &#1041;&#1044;</text><rect fill="#F1F1F1" height="33.9688" rx="12.5" ry="12.5" style="stroke:#181818;stroke-width:0.5;" width="302.2871" x="11" y="353.8438"/><text fill="#000000" font-family="sans-serif" font-size="12" lengthAdjust="spacing" textLength="282.2871" x="21" y="374.9824">&#1054;&#1090;&#1086;&#1073;&#1088;&#1072;&#1079;&#1080;&#1090;&#1100; &#1086;&#1073;&#1085;&#1086;&#1074;&#1083;&#1105;&#1085;&#1085;&#1099;&#1077; &#1076;&#1072;&#1085;&#1085;&#1099;&#1077; &#1074; &#1090;&#1072;&#1073;&#1083;&#1080;&#1094;&#1077;</text><rect fill="#F1F1F1" height="33.9688" rx="12.5" ry="12.5" style="stroke:#181818;stroke-width:0.5;" width="162.6992" x="333.2871" y="299.875"/><text fill="#000000" font-family="sans-serif" font-size="12" lengthAdjust="spacing" textLength="142.6992" x="343.2871" y="321.0137">&#1057;&#1086;&#1086;&#1073;&#1097;&#1077;&#1085;&#1080;&#1077; &#1086;&#1073; &#1086;&#1096;&#1080;&#1073;&#1082;&#1077;</text><polygon fill="#F1F1F1" points="288.3901,393.8125,300.3901,405.8125,288.3901,417.8125,276.3901,405.8125,288.3901,393.8125" style="stroke:#181818;stroke-width:0.5;"/><ellipse cx="288.3901" cy="448.8125" fill="none" rx="11" ry="11" style="stroke:#222222;stroke-width:1;"/><ellipse cx="288.3901" cy="448.8125" fill="#222222" rx="6" ry="6" style="stroke:#222222;stroke-width:1;"/><line style="stroke:#181818;stroke-width:1;" x1="288.3901" x2="288.3901" y1="30" y2="50"/><polygon fill="#181818" points="284.3901,40,288.3901,50,292.3901,40,288.3901,44" style="stroke:#181818;stroke-width:1;"/><line style="stroke:#181818;stroke-width:1;" x1="288.3901" x2="288.3901" y1="83.9688" y2="103.9688"/><polygon fill="#181818" points="284.3901,93.9688,288.3901,103.9688,292.3901,93.9688,288.3901,97.9688" style="stroke:#181818;stroke-width:1;"/><line style="stroke:#181818;stroke-width:1;" x1="288.3901" x2="288.3901" y1="137.9375" y2="157.9375"/><polygon fill="#181818" points="284.3901,147.9375,288.3901,157.9375,292.3901,147.9375,288.3901,151.9375" style="stroke:#181818;stroke-width:1;"/><line style="stroke:#181818;stroke-width:1;" x1="288.3901" x2="288.3901" y1="191.9063" y2="211.9063"/><polygon fill="#181818" points="284.3901,201.9063,288.3901,211.9063,292.3901,201.9063,288.3901,205.9063" style="stroke:#181818;stroke-width:1;"/><line style="stroke:#181818;stroke-width:1;" x1="162.1436" x2="162.1436" y1="333.8438" y2="353.8438"/><polygon fill="#181818" points="158.1436,343.8438,162.1436,353.8438,166.1436,343.8438,162.1436,347.8438" style="stroke:#181818;stroke-width:1;"/><line style="stroke:#181818;stroke-width:1;" x1="217.6196" x2="162.1436" y1="277.875" y2="277.875"/><line style="stroke:#181818;stroke-width:1;" x1="162.1436" x2="162.1436" y1="277.875" y2="299.875"/><polygon fill="#181818" points="158.1436,289.875,162.1436,299.875,166.1436,289.875,162.1436,293.875" style="stroke:#181818;stroke-width:1;"/><line style="stroke:#181818;stroke-width:1;" x1="359.1606" x2="414.6367" y1="277.875" y2="277.875"/><line style="stroke:#181818;stroke-width:1;" x1="414.6367" x2="414.6367" y1="277.875" y2="299.875"/><polygon fill="#181818" points="410.6367,289.875,414.6367,299.875,418.6367,289.875,414.6367,293.875" style="stroke:#181818;stroke-width:1;"/><line style="stroke:#181818;stroke-width:1;" x1="162.1436" x2="162.1436" y1="387.8125" y2="405.8125"/><line style="stroke:#181818;stroke-width:1;" x1="162.1436" x2="276.3901" y1="405.8125" y2="405.8125"/><polygon fill="#181818" points="266.3901,401.8125,276.3901,405.8125,266.3901,409.8125,270.3901,405.8125" style="stroke:#181818;stroke-width:1;"/><line style="stroke:#181818;stroke-width:1;" x1="414.6367" x2="414.6367" y1="333.8438" y2="405.8125"/><line style="stroke:#181818;stroke-width:1;" x1="414.6367" x2="300.3901" y1="405.8125" y2="405.8125"/><polygon fill="#181818" points="310.3901,401.8125,300.3901,405.8125,310.3901,409.8125,306.3901,405.8125" style="stroke:#181818;stroke-width:1;"/><line style="stroke:#181818;stroke-width:1;" x1="288.3901" x2="288.3901" y1="245.875" y2="265.875"/><polygon fill="#181818" points="284.3901,255.875,288.3901,265.875,292.3901,255.875,288.3901,259.875" style="stroke:#181818;stroke-width:1;"/><line style="stroke:#181818;stroke-width:1;" x1="288.3901" x2="288.3901" y1="417.8125" y2="437.8125"/><polygon fill="#181818" points="284.3901,427.8125,288.3901,437.8125,292.3901,427.8125,288.3901,431.8125" style="stroke:#181818;stroke-width:1;"/><!--SRC=[JL1HIiDG4Fn_frZwPQ_GV7WMmHGBKel90T98HMb1MlfRYpT8Ofx6rgHNcBsHyzvhL0AFpExCxEmcwTLzQim8hvhZe9akDTULeCC1BJePOAyPqJlV0j_yMbtYIzZk24uumb8t7qJEPCDUwPZ1f2BhI5bDnWEjDjJKQ3Z9iju4pOw4ZrxXXz8ryBVyBzckd4PNvnc4j14w5MGpZYuar7fhVI5pCfOBEfmvi3uo5ynyuDmLBuUItiJJm1iQaH7Uo5duNTimLF19S2AO-vK4QsmZptKdwyA-93NzuKg_GyKOwx_PzVyWbL1PaCWZw2DiPEBR96QC7Qpclq6y-JFZCegJ4VBH9wAIopZPz7eoDYP9xsO_]--></g></svg>