<svg xmlns="http://www.w3.org/2000/svg" xmlns:xlink="http://www.w3.org/1999/xlink" contentStyleType="text/css" height="1039px" preserveAspectRatio="none" style="width:540px;height:1039px;background:#FFFFFF;" version="1.1" viewBox="0 0 540 1039" width="540px" zoomAndPan="magnify"><defs/><g><!--class Person--><g id="elem_Person"><rect codeLine="1" fill="#F1F1F1" height="96.8906" id="Person" rx="2.5" ry="2.5" style="stroke:#181818;stroke-width:0.5;" width="143.3047" x="67" y="56"/><ellipse cx="110.6923" cy="72" fill="#A9DCDF" rx="11" ry="11" style="stroke:#181818;stroke-width:1;"/><path d="M110.8017,67.3438 L109.6455,72.4219 L111.9736,72.4219 L110.8017,67.3438 Z M109.3173,65.1094 L112.3017,65.1094 L115.6611,77.5 L113.208,77.5 L112.4423,74.4375 L109.1611,74.4375 L108.4111,77.5 L105.9736,77.5 L109.3173,65.1094 Z " fill="#000000"/><text fill="#000000" font-family="sans-serif" font-size="14" font-style="italic" lengthAdjust="spacing" textLength="47.5439" x="131.0684" y="76.8467">Person</text><line style="stroke:#181818;stroke-width:0.5;" x1="68" x2="209.3047" y1="88" y2="88"/><rect fill="none" height="6" style="stroke:#C82930;stroke-width:1;" width="6" x="75" y="98.6484"/><text fill="#000000" font-family="sans-serif" font-size="14" lengthAdjust="spacing" textLength="90.6514" x="87" y="104.9951">name: String</text><rect fill="none" height="6" style="stroke:#C82930;stroke-width:1;" width="6" x="75" y="114.9453"/><text fill="#000000" font-family="sans-serif" font-size="14" lengthAdjust="spacing" textLength="100.5771" x="87" y="121.292">gender: String</text><rect fill="none" height="6" style="stroke:#C82930;stroke-width:1;" width="6" x="75" y="131.2422"/><text fill="#000000" font-family="sans-serif" font-size="14" lengthAdjust="spacing" textLength="117.3047" x="87" y="137.5889">birthDate: String</text><line style="stroke:#181818;stroke-width:0.5;" x1="68" x2="209.3047" y1="144.8906" y2="144.8906"/></g><!--class Driver--><g id="elem_Driver"><rect codeLine="7" fill="#F1F1F1" height="162.0781" id="Driver" rx="2.5" ry="2.5" style="stroke:#181818;stroke-width:0.5;" width="262.9609" x="7" y="279"/><ellipse cx="112.6904" cy="295" fill="#ADD1B2" rx="11" ry="11" style="stroke:#181818;stroke-width:1;"/><path d="M115.6592,300.6406 Q115.0811,300.9375 114.4404,301.0781 Q113.7998,301.2344 113.0967,301.2344 Q110.5967,301.2344 109.2686,299.5938 Q107.9561,297.9375 107.9561,294.8125 Q107.9561,291.6875 109.2686,290.0313 Q110.5967,288.375 113.0967,288.375 Q113.7998,288.375 114.4404,288.5313 Q115.0967,288.6875 115.6592,288.9844 L115.6592,291.7031 Q115.0342,291.125 114.4404,290.8594 Q113.8467,290.5781 113.2217,290.5781 Q111.8779,290.5781 111.1904,291.6563 Q110.5029,292.7188 110.5029,294.8125 Q110.5029,296.9063 111.1904,297.9844 Q111.8779,299.0469 113.2217,299.0469 Q113.8467,299.0469 114.4404,298.7813 Q115.0342,298.5 115.6592,297.9219 L115.6592,300.6406 Z " fill="#000000"/><text fill="#000000" font-family="sans-serif" font-size="14" lengthAdjust="spacing" textLength="43.0801" x="133.1904" y="299.8467">Driver</text><line style="stroke:#181818;stroke-width:0.5;" x1="8" x2="268.9609" y1="311" y2="311"/><rect fill="none" height="6" style="stroke:#C82930;stroke-width:1;" width="6" x="15" y="321.6484"/><text fill="#000000" font-family="sans-serif" font-size="14" lengthAdjust="spacing" textLength="201.1543" x="27" y="327.9951">driverLicenseNumber: String</text><rect fill="none" height="6" style="stroke:#C82930;stroke-width:1;" width="6" x="15" y="337.9453"/><text fill="#000000" font-family="sans-serif" font-size="14" lengthAdjust="spacing" textLength="177.2285" x="27" y="344.292">licenseExpiryDate: String</text><line style="stroke:#181818;stroke-width:0.5;" x1="8" x2="268.9609" y1="351.5938" y2="351.5938"/><ellipse cx="18" cy="365.2422" fill="#84BE84" rx="3" ry="3" style="stroke:#038048;stroke-width:1;"/><text fill="#000000" font-family="sans-serif" font-size="14" lengthAdjust="spacing" textLength="126.1641" x="27" y="368.5889">getName(): String</text><ellipse cx="18" cy="381.5391" fill="#84BE84" rx="3" ry="3" style="stroke:#038048;stroke-width:1;"/><text fill="#000000" font-family="sans-serif" font-size="14" lengthAdjust="spacing" textLength="136.4521" x="27" y="384.8857">getGender(): String</text><ellipse cx="18" cy="397.8359" fill="#84BE84" rx="3" ry="3" style="stroke:#038048;stroke-width:1;"/><text fill="#000000" font-family="sans-serif" font-size="14" lengthAdjust="spacing" textLength="151.9355" x="27" y="401.1826">getBirthDate(): String</text><ellipse cx="18" cy="414.1328" fill="#84BE84" rx="3" ry="3" style="stroke:#038048;stroke-width:1;"/><text fill="#000000" font-family="sans-serif" font-size="14" lengthAdjust="spacing" textLength="236.9609" x="27" y="417.4795">getDriverLicenseNumber(): String</text><ellipse cx="18" cy="430.4297" fill="#84BE84" rx="3" ry="3" style="stroke:#038048;stroke-width:1;"/><text fill="#000000" font-family="sans-serif" font-size="14" lengthAdjust="spacing" textLength="215.0518" x="27" y="433.7764">getLicenseExpiryDate(): String</text></g><!--class Car--><g id="elem_Car"><rect codeLine="18" fill="#F1F1F1" height="292.4531" id="Car" rx="2.5" ry="2.5" style="stroke:#181818;stroke-width:0.5;" width="262.9609" x="157" y="518"/><ellipse cx="272.1753" cy="534" fill="#ADD1B2" rx="11" ry="11" style="stroke:#181818;stroke-width:1;"/><path d="M275.144,539.6406 Q274.5659,539.9375 273.9253,540.0781 Q273.2847,540.2344 272.5815,540.2344 Q270.0815,540.2344 268.7534,538.5938 Q267.4409,536.9375 267.4409,533.8125 Q267.4409,530.6875 268.7534,529.0313 Q270.0815,527.375 272.5815,527.375 Q273.2847,527.375 273.9253,527.5313 Q274.5815,527.6875 275.144,527.9844 L275.144,530.7031 Q274.519,530.125 273.9253,529.8594 Q273.3315,529.5781 272.7065,529.5781 Q271.3628,529.5781 270.6753,530.6563 Q269.9878,531.7188 269.9878,533.8125 Q269.9878,535.9063 270.6753,536.9844 Q271.3628,538.0469 272.7065,538.0469 Q273.3315,538.0469 273.9253,537.7813 Q274.519,537.5 275.144,536.9219 L275.144,539.6406 Z " fill="#000000"/><text fill="#000000" font-family="sans-serif" font-size="14" lengthAdjust="spacing" textLength="24.1104" x="292.6753" y="538.8467">Car</text><line style="stroke:#181818;stroke-width:0.5;" x1="158" x2="418.9609" y1="550" y2="550"/><rect fill="none" height="6" style="stroke:#C82930;stroke-width:1;" width="6" x="165" y="560.6484"/><text fill="#000000" font-family="sans-serif" font-size="14" lengthAdjust="spacing" textLength="71.9961" x="177" y="566.9951">vin: String</text><rect fill="none" height="6" style="stroke:#C82930;stroke-width:1;" width="6" x="165" y="576.9453"/><text fill="#000000" font-family="sans-serif" font-size="14" lengthAdjust="spacing" textLength="134.832" x="177" y="583.292">licensePlate: String</text><rect fill="none" height="6" style="stroke:#C82930;stroke-width:1;" width="6" x="165" y="593.2422"/><text fill="#000000" font-family="sans-serif" font-size="14" lengthAdjust="spacing" textLength="85.4219" x="177" y="599.5889">color: String</text><rect fill="none" height="6" style="stroke:#C82930;stroke-width:1;" width="6" x="165" y="609.5391"/><text fill="#000000" font-family="sans-serif" font-size="14" lengthAdjust="spacing" textLength="94.541" x="177" y="615.8857">model: String</text><rect fill="none" height="6" style="stroke:#C82930;stroke-width:1;" width="6" x="165" y="625.8359"/><text fill="#000000" font-family="sans-serif" font-size="14" lengthAdjust="spacing" textLength="196.8066" x="177" y="632.1826">insuranceExpiryDate: String</text><rect fill="none" height="6" style="stroke:#C82930;stroke-width:1;" width="6" x="165" y="642.1328"/><text fill="#000000" font-family="sans-serif" font-size="14" lengthAdjust="spacing" textLength="200.4297" x="177" y="648.4795">inspectionExpiryDate: String</text><rect fill="none" height="6" style="stroke:#C82930;stroke-width:1;" width="6" x="165" y="658.4297"/><text fill="#000000" font-family="sans-serif" font-size="14" lengthAdjust="spacing" textLength="201.1543" x="177" y="664.7764">driverLicenseNumber: String</text><line style="stroke:#181818;stroke-width:0.5;" x1="158" x2="418.9609" y1="672.0781" y2="672.0781"/><ellipse cx="168" cy="685.7266" fill="#84BE84" rx="3" ry="3" style="stroke:#038048;stroke-width:1;"/><text fill="#000000" font-family="sans-serif" font-size="14" lengthAdjust="spacing" textLength="109.04" x="177" y="689.0732">getVIN(): String</text><ellipse cx="168" cy="702.0234" fill="#84BE84" rx="3" ry="3" style="stroke:#038048;stroke-width:1;"/><text fill="#000000" font-family="sans-serif" font-size="14" lengthAdjust="spacing" textLength="236.9609" x="177" y="705.3701">getDriverLicenseNumber(): String</text><ellipse cx="168" cy="718.3203" fill="#84BE84" rx="3" ry="3" style="stroke:#038048;stroke-width:1;"/><text fill="#000000" font-family="sans-serif" font-size="14" lengthAdjust="spacing" textLength="172.6553" x="177" y="721.667">getLicensePlate(): String</text><ellipse cx="168" cy="734.6172" fill="#84BE84" rx="3" ry="3" style="stroke:#038048;stroke-width:1;"/><text fill="#000000" font-family="sans-serif" font-size="14" lengthAdjust="spacing" textLength="121.4131" x="177" y="737.9639">getColor(): String</text><ellipse cx="168" cy="750.9141" fill="#84BE84" rx="3" ry="3" style="stroke:#038048;stroke-width:1;"/><text fill="#000000" font-family="sans-serif" font-size="14" lengthAdjust="spacing" textLength="126.8955" x="177" y="754.2607">getModel(): String</text><ellipse cx="168" cy="767.2109" fill="#84BE84" rx="3" ry="3" style="stroke:#038048;stroke-width:1;"/><text fill="#000000" font-family="sans-serif" font-size="14" lengthAdjust="spacing" textLength="234.582" x="177" y="770.5576">getInspectionExpiryDate(): String</text><ellipse cx="168" cy="783.5078" fill="#84BE84" rx="3" ry="3" style="stroke:#038048;stroke-width:1;"/><text fill="#000000" font-family="sans-serif" font-size="14" lengthAdjust="spacing" textLength="230.959" x="177" y="786.8545">getInsuranceExpiryDate(): String</text><ellipse cx="168" cy="799.8047" fill="#84BE84" rx="3" ry="3" style="stroke:#038048;stroke-width:1;"/><text fill="#000000" font-family="sans-serif" font-size="14" lengthAdjust="spacing" textLength="120.1143" x="177" y="803.1514">setLicensePlate()</text></g><!--class Violation--><g id="elem_Violation"><rect codeLine="37" fill="#F1F1F1" height="145.7813" id="Violation" rx="2.5" ry="2.5" style="stroke:#181818;stroke-width:0.5;" width="198.6553" x="282" y="887"/><ellipse cx="346.4185" cy="903" fill="#ADD1B2" rx="11" ry="11" style="stroke:#181818;stroke-width:1;"/><path d="M349.3872,908.6406 Q348.8091,908.9375 348.1685,909.0781 Q347.5278,909.2344 346.8247,909.2344 Q344.3247,909.2344 342.9966,907.5938 Q341.6841,905.9375 341.6841,902.8125 Q341.6841,899.6875 342.9966,898.0313 Q344.3247,896.375 346.8247,896.375 Q347.5278,896.375 348.1685,896.5313 Q348.8247,896.6875 349.3872,896.9844 L349.3872,899.7031 Q348.7622,899.125 348.1685,898.8594 Q347.5747,898.5781 346.9497,898.5781 Q345.606,898.5781 344.9185,899.6563 Q344.231,900.7188 344.231,902.8125 Q344.231,904.9063 344.9185,905.9844 Q345.606,907.0469 346.9497,907.0469 Q347.5747,907.0469 348.1685,906.7813 Q348.7622,906.5 349.3872,905.9219 L349.3872,908.6406 Z " fill="#000000"/><text fill="#000000" font-family="sans-serif" font-size="14" lengthAdjust="spacing" textLength="61.3184" x="366.9185" y="907.8467">Violation</text><line style="stroke:#181818;stroke-width:0.5;" x1="283" x2="479.6553" y1="919" y2="919"/><rect fill="none" height="6" style="stroke:#C82930;stroke-width:1;" width="6" x="290" y="929.6484"/><text fill="#000000" font-family="sans-serif" font-size="14" lengthAdjust="spacing" textLength="134.832" x="302" y="935.9951">licensePlate: String</text><rect fill="none" height="6" style="stroke:#C82930;stroke-width:1;" width="6" x="290" y="945.9453"/><text fill="#000000" font-family="sans-serif" font-size="14" lengthAdjust="spacing" textLength="82.5166" x="302" y="952.292">date: String</text><rect fill="none" height="6" style="stroke:#C82930;stroke-width:1;" width="6" x="290" y="962.2422"/><text fill="#000000" font-family="sans-serif" font-size="14" lengthAdjust="spacing" textLength="82.2227" x="302" y="968.5889">type: String</text><line style="stroke:#181818;stroke-width:0.5;" x1="283" x2="479.6553" y1="975.8906" y2="975.8906"/><ellipse cx="293" cy="989.5391" fill="#84BE84" rx="3" ry="3" style="stroke:#038048;stroke-width:1;"/><text fill="#000000" font-family="sans-serif" font-size="14" lengthAdjust="spacing" textLength="172.6553" x="302" y="992.8857">getLicensePlate(): String</text><ellipse cx="293" cy="1005.8359" fill="#84BE84" rx="3" ry="3" style="stroke:#038048;stroke-width:1;"/><text fill="#000000" font-family="sans-serif" font-size="14" lengthAdjust="spacing" textLength="118.3232" x="302" y="1009.1826">getDate(): String</text><ellipse cx="293" cy="1022.1328" fill="#84BE84" rx="3" ry="3" style="stroke:#038048;stroke-width:1;"/><text fill="#000000" font-family="sans-serif" font-size="14" lengthAdjust="spacing" textLength="119.1982" x="302" y="1025.4795">getType(): String</text></g><!--class Main--><g id="elem_Main"><rect codeLine="47" fill="#F1F1F1" height="194.6719" id="Main" rx="2.5" ry="2.5" style="stroke:#181818;stroke-width:0.5;" width="142.3477" x="269.5" y="7"/><ellipse cx="319.7134" cy="23" fill="#ADD1B2" rx="11" ry="11" style="stroke:#181818;stroke-width:1;"/><path d="M322.6821,28.6406 Q322.104,28.9375 321.4634,29.0781 Q320.8228,29.2344 320.1196,29.2344 Q317.6196,29.2344 316.2915,27.5938 Q314.979,25.9375 314.979,22.8125 Q314.979,19.6875 316.2915,18.0313 Q317.6196,16.375 320.1196,16.375 Q320.8228,16.375 321.4634,16.5313 Q322.1196,16.6875 322.6821,16.9844 L322.6821,19.7031 Q322.0571,19.125 321.4634,18.8594 Q320.8696,18.5781 320.2446,18.5781 Q318.9009,18.5781 318.2134,19.6563 Q317.5259,20.7188 317.5259,22.8125 Q317.5259,24.9063 318.2134,25.9844 Q318.9009,27.0469 320.2446,27.0469 Q320.8696,27.0469 321.4634,26.7813 Q322.0571,26.5 322.6821,25.9219 L322.6821,28.6406 Z " fill="#000000"/><text fill="#000000" font-family="sans-serif" font-size="14" lengthAdjust="spacing" textLength="33.4209" x="340.2134" y="27.8467">Main</text><line style="stroke:#181818;stroke-width:0.5;" x1="270.5" x2="410.8477" y1="39" y2="39"/><line style="stroke:#181818;stroke-width:0.5;" x1="270.5" x2="410.8477" y1="47" y2="47"/><ellipse cx="280.5" cy="60.6484" fill="#84BE84" rx="3" ry="3" style="stroke:#038048;stroke-width:1;"/><text fill="#000000" font-family="sans-serif" font-size="14" lengthAdjust="spacing" textLength="80.3564" x="289.5" y="63.9951">addDriver()</text><ellipse cx="280.5" cy="76.9453" fill="#84BE84" rx="3" ry="3" style="stroke:#038048;stroke-width:1;"/><text fill="#000000" font-family="sans-serif" font-size="14" lengthAdjust="spacing" textLength="61.3867" x="289.5" y="80.292">addCar()</text><ellipse cx="280.5" cy="93.2422" fill="#84BE84" rx="3" ry="3" style="stroke:#038048;stroke-width:1;"/><text fill="#000000" font-family="sans-serif" font-size="14" lengthAdjust="spacing" textLength="98.5947" x="289.5" y="96.5889">addViolation()</text><ellipse cx="280.5" cy="109.5391" fill="#84BE84" rx="3" ry="3" style="stroke:#038048;stroke-width:1;"/><text fill="#000000" font-family="sans-serif" font-size="14" lengthAdjust="spacing" textLength="80.8828" x="289.5" y="112.8857">editDriver()</text><ellipse cx="280.5" cy="125.8359" fill="#84BE84" rx="3" ry="3" style="stroke:#038048;stroke-width:1;"/><text fill="#000000" font-family="sans-serif" font-size="14" lengthAdjust="spacing" textLength="61.9131" x="289.5" y="129.1826">editCar()</text><ellipse cx="280.5" cy="142.1328" fill="#84BE84" rx="3" ry="3" style="stroke:#038048;stroke-width:1;"/><text fill="#000000" font-family="sans-serif" font-size="14" lengthAdjust="spacing" textLength="99.1211" x="289.5" y="145.4795">editViolation()</text><ellipse cx="280.5" cy="158.4297" fill="#84BE84" rx="3" ry="3" style="stroke:#038048;stroke-width:1;"/><text fill="#000000" font-family="sans-serif" font-size="14" lengthAdjust="spacing" textLength="98.1094" x="289.5" y="161.7764">deleteDriver()</text><ellipse cx="280.5" cy="174.7266" fill="#84BE84" rx="3" ry="3" style="stroke:#038048;stroke-width:1;"/><text fill="#000000" font-family="sans-serif" font-size="14" lengthAdjust="spacing" textLength="79.1396" x="289.5" y="178.0732">deleteCar()</text><ellipse cx="280.5" cy="191.0234" fill="#84BE84" rx="3" ry="3" style="stroke:#038048;stroke-width:1;"/><text fill="#000000" font-family="sans-serif" font-size="14" lengthAdjust="spacing" textLength="116.3477" x="289.5" y="194.3701">deleteViolation()</text></g><!--reverse link Person to Driver--><g id="link_Person_Driver"><path codeLine="59" d="M138.5,171.18 C138.5,206.54 138.5,237.55 138.5,278.88 " fill="none" id="Person-backto-Driver" style="stroke:#181818;stroke-width:1;"/><polygon fill="none" points="138.5,153.18,132.5,171.18,144.5,171.18,138.5,153.18" style="stroke:#181818;stroke-width:1;"/></g><!--link Driver to Car--><g id="link_Driver_Car"><path codeLine="60" d="M178.3,441.14 C190.06,464.82 203.32,491.5 216.45,517.94 " fill="none" id="Driver-Car" style="stroke:#181818;stroke-width:1;"/><text fill="#000000" font-family="sans-serif" font-size="13" lengthAdjust="spacing" textLength="56.4941" x="201.5" y="484.0669">&#1074;&#1083;&#1072;&#1076;&#1077;&#1077;&#1090;</text><text fill="#000000" font-family="sans-serif" font-size="13" lengthAdjust="spacing" textLength="8.271" x="173.5022" y="461.1038">1</text><text fill="#000000" font-family="sans-serif" font-size="13" lengthAdjust="spacing" textLength="6.5" x="206.5941" y="507.0807">*</text></g><!--link Car to Violation--><g id="link_Car_Violation"><path codeLine="61" d="M334.46,810.28 C342.88,836.9 351.32,863.59 358.68,886.87 " fill="none" id="Car-Violation" style="stroke:#181818;stroke-width:1;"/><text fill="#000000" font-family="sans-serif" font-size="13" lengthAdjust="spacing" textLength="65.2412" x="350.5" y="853.0669">&#1089;&#1074;&#1103;&#1079;&#1072;&#1085;&#1086; &#1089;</text><text fill="#000000" font-family="sans-serif" font-size="13" lengthAdjust="spacing" textLength="8.271" x="328.7632" y="830.748">1</text><text fill="#000000" font-family="sans-serif" font-size="13" lengthAdjust="spacing" textLength="6.5" x="350.1799" y="876.0172">*</text></g><!--link Main to Driver--><g id="link_Main_Driver"><path codeLine="62" d="M269.49,189.05 C257.68,203.28 245.65,217.99 234.5,232 C222.54,247.03 213.6226,258.4846 201.7026,274.1546 " fill="none" id="Main-to-Driver" style="stroke:#181818;stroke-width:1;stroke-dasharray:7.0,7.0;"/><polygon fill="#181818" points="198.07,278.93,206.7025,274.1886,201.0972,274.9505,200.3353,269.3452,198.07,278.93" style="stroke:#181818;stroke-width:1;"/><text fill="#000000" font-family="sans-serif" font-size="13" lengthAdjust="spacing" textLength="78.1968" x="235.5" y="245.0669">&#1080;&#1089;&#1087;&#1086;&#1083;&#1100;&#1079;&#1091;&#1077;&#1090;</text></g><!--link Main to Car--><g id="link_Main_Car"><path codeLine="63" d="M331.47,202.29 C323.35,289.36 311.8676,412.526 302.5876,511.946 " fill="none" id="Main-to-Car" style="stroke:#181818;stroke-width:1;stroke-dasharray:7.0,7.0;"/><polygon fill="#181818" points="302.03,517.92,306.8491,509.3307,302.4947,512.9416,298.8837,508.5872,302.03,517.92" style="stroke:#181818;stroke-width:1;"/><text fill="#000000" font-family="sans-serif" font-size="13" lengthAdjust="spacing" textLength="78.1968" x="325.5" y="364.5669">&#1080;&#1089;&#1087;&#1086;&#1083;&#1100;&#1079;&#1091;&#1077;&#1090;</text></g><!--link Main to Violation--><g id="link_Main_Violation"><path codeLine="64" d="M386.51,202.45 C396.52,226.96 406.04,253.56 412.5,279 C470.68,507.99 469.28,575.89 437.5,810 C433.99,835.88 427.6364,857.3665 418.2464,881.2365 " fill="none" id="Main-to-Violation" style="stroke:#181818;stroke-width:1;stroke-dasharray:7.0,7.0;"/><polygon fill="#181818" points="416.05,886.82,423.067,879.909,417.8804,882.1671,415.6223,876.9804,416.05,886.82" style="stroke:#181818;stroke-width:1;"/><text fill="#000000" font-family="sans-serif" font-size="13" lengthAdjust="spacing" textLength="78.1968" x="454.5" y="484.0669">&#1080;&#1089;&#1087;&#1086;&#1083;&#1100;&#1079;&#1091;&#1077;&#1090;</text></g><!--SRC=[fLHDImCn4BtlhmXxKaiBNejui1KfjAMWz9vkGWriioMR5ejwKA-2VqMAfKAn_eNiFpARpNubQIyUvysRoNipIU0avWm670GXZ6CmmYoEA7Zq06W22cUu3Muv8tIgW2cc2BCQD26CttSXBudFdfVrwZAon4ptGYheam3J60yNiudH9ymormzpmbQrVZBTa2VpeLHpSbefKkYDacJZLxakEzMrfTYalgcdGYaSTc1kRqceoyueh3f94q4KHdNdimZXi8OG6YyOf85h6Ze_nm4d4Jr0E3RitE2uD_pVQ9GtEzj93Thm87Lfmps75IVB78X1YarPvPB6998GAMxrmTKW4-2hkNqDZxjtwx-JZLptPm19fge184BPyALq7SlRLGQ52mrXH7Yj80NAYZGoI-G2CCUreWmgoxAuMYYrwZ_XugdPr6_Qqq_RF_U11FqpNps5DX1hiHEVuajin2PvzLAmmYatqGR9YrWd7s8hsJzYBqDF3QFLkip_3TdjMx9-nLxiadUnJTvKpuAcJppAgPxeOlu1]--></g></svg>