<svg xmlns="http://www.w3.org/2000/svg" xmlns:xlink="http://www.w3.org/1999/xlink" contentStyleType="text/css" height="176px" preserveAspectRatio="none" style="width:917px;height:176px;background:#FFFFFF;" version="1.1" viewBox="0 0 917 176" width="917px" zoomAndPan="magnify"><defs/><g><!--class Drivers--><g id="elem_Drivers"><rect codeLine="3" fill="#F1F1F1" height="129.4844" id="Drivers" rx="2.5" ry="2.5" style="stroke:#181818;stroke-width:0.5;" width="258.3604" x="7" y="23.5"/><ellipse cx="106.7432" cy="39.5" fill="#ADD1B2" rx="11" ry="11" style="stroke:#181818;stroke-width:1;"/><path d="M110.8525,45.5 L103.1338,45.5 L103.1338,33.1094 L110.8525,33.1094 L110.8525,35.2656 L105.5869,35.2656 L105.5869,37.9375 L110.3525,37.9375 L110.3525,40.0938 L105.5869,40.0938 L105.5869,43.3438 L110.8525,43.3438 L110.8525,45.5 Z " fill="#000000"/><text fill="#000000" font-family="sans-serif" font-size="14" lengthAdjust="spacing" textLength="50.374" x="127.2432" y="44.3467">Drivers</text><line style="stroke:#181818;stroke-width:0.5;" x1="8" x2="264.3604" y1="55.5" y2="55.5"/><ellipse cx="18" cy="69.1484" fill="#000000" rx="3" ry="3" style="stroke:#000000;stroke-width:1;"/><text fill="#000000" font-family="sans-serif" font-size="14" lengthAdjust="spacing" textLength="232.3604" x="27" y="72.4951">driverLicenseNumber : TEXT [PK]</text><line style="stroke:#181818;stroke-width:1;" x1="8" x2="264.3604" y1="79.7969" y2="79.7969"/><text fill="#000000" font-family="sans-serif" font-size="14" lengthAdjust="spacing" textLength="88.8604" x="13" y="96.792">name : TEXT</text><text fill="#000000" font-family="sans-serif" font-size="14" lengthAdjust="spacing" textLength="98.7861" x="13" y="113.0889">gender : TEXT</text><text fill="#000000" font-family="sans-serif" font-size="14" lengthAdjust="spacing" textLength="115.5137" x="13" y="129.3857">birthDate : TEXT</text><text fill="#000000" font-family="sans-serif" font-size="14" lengthAdjust="spacing" textLength="175.4375" x="13" y="145.6826">licenseExpiryDate : TEXT</text></g><!--class Cars--><g id="elem_Cars"><rect codeLine="12" fill="#F1F1F1" height="162.0781" id="Cars" rx="2.5" ry="2.5" style="stroke:#181818;stroke-width:0.5;" width="243.9707" x="384" y="7"/><ellipse cx="486.0332" cy="23" fill="#ADD1B2" rx="11" ry="11" style="stroke:#181818;stroke-width:1;"/><path d="M490.1426,29 L482.4238,29 L482.4238,16.6094 L490.1426,16.6094 L490.1426,18.7656 L484.877,18.7656 L484.877,21.4375 L489.6426,21.4375 L489.6426,23.5938 L484.877,23.5938 L484.877,26.8438 L490.1426,26.8438 L490.1426,29 Z " fill="#000000"/><text fill="#000000" font-family="sans-serif" font-size="14" lengthAdjust="spacing" textLength="31.4043" x="506.5332" y="27.8467">Cars</text><line style="stroke:#181818;stroke-width:0.5;" x1="385" x2="626.9707" y1="39" y2="39"/><ellipse cx="395" cy="52.6484" fill="#000000" rx="3" ry="3" style="stroke:#000000;stroke-width:1;"/><text fill="#000000" font-family="sans-serif" font-size="14" lengthAdjust="spacing" textLength="166.0381" x="404" y="55.9951">licensePlate : TEXT [PK]</text><line style="stroke:#181818;stroke-width:1;" x1="385" x2="626.9707" y1="63.2969" y2="63.2969"/><text fill="#000000" font-family="sans-serif" font-size="14" lengthAdjust="spacing" textLength="231.9707" x="390" y="80.292">driverLicenseNumber : TEXT [FK]</text><text fill="#000000" font-family="sans-serif" font-size="14" lengthAdjust="spacing" textLength="70.2051" x="390" y="96.5889">vin : TEXT</text><text fill="#000000" font-family="sans-serif" font-size="14" lengthAdjust="spacing" textLength="83.6309" x="390" y="112.8857">color : TEXT</text><text fill="#000000" font-family="sans-serif" font-size="14" lengthAdjust="spacing" textLength="92.75" x="390" y="129.1826">model : TEXT</text><text fill="#000000" font-family="sans-serif" font-size="14" lengthAdjust="spacing" textLength="195.0156" x="390" y="145.4795">insuranceExpiryDate : TEXT</text><text fill="#000000" font-family="sans-serif" font-size="14" lengthAdjust="spacing" textLength="198.6387" x="390" y="161.7764">inspectionExpiryDate : TEXT</text></g><!--class Violations--><g id="elem_Violations"><rect codeLine="23" fill="#F1F1F1" height="113.1875" id="Violations" rx="2.5" ry="2.5" style="stroke:#181818;stroke-width:0.5;" width="177.6484" x="733" y="31.5"/><ellipse cx="783.2681" cy="47.5" fill="#ADD1B2" rx="11" ry="11" style="stroke:#181818;stroke-width:1;"/><path d="M787.3774,53.5 L779.6587,53.5 L779.6587,41.1094 L787.3774,41.1094 L787.3774,43.2656 L782.1118,43.2656 L782.1118,45.9375 L786.8774,45.9375 L786.8774,48.0938 L782.1118,48.0938 L782.1118,51.3438 L787.3774,51.3438 L787.3774,53.5 Z " fill="#000000"/><text fill="#000000" font-family="sans-serif" font-size="14" lengthAdjust="spacing" textLength="68.6123" x="803.7681" y="52.3467">Violations</text><line style="stroke:#181818;stroke-width:0.5;" x1="734" x2="909.6484" y1="63.5" y2="63.5"/><ellipse cx="744" cy="77.1484" fill="#000000" rx="3" ry="3" style="stroke:#000000;stroke-width:1;"/><text fill="#000000" font-family="sans-serif" font-size="14" lengthAdjust="spacing" textLength="120.8115" x="753" y="80.4951">id : INTEGER [PK]</text><line style="stroke:#181818;stroke-width:1;" x1="734" x2="909.6484" y1="87.7969" y2="87.7969"/><text fill="#000000" font-family="sans-serif" font-size="14" lengthAdjust="spacing" textLength="165.6484" x="739" y="104.792">licensePlate : TEXT [FK]</text><text fill="#000000" font-family="sans-serif" font-size="14" lengthAdjust="spacing" textLength="80.7256" x="739" y="121.0889">date : TEXT</text><text fill="#000000" font-family="sans-serif" font-size="14" lengthAdjust="spacing" textLength="143.5205" x="739" y="137.3857">violationType : TEXT</text></g><!--link Drivers to Cars--><g id="link_Drivers_Cars"><path codeLine="31" d="M273.19,88 C311.67,88 327.75,88 365.76,88 " fill="none" id="Drivers-Cars" style="stroke:#181818;stroke-width:1;"/><line style="stroke:#181818;stroke-width:1;" x1="269.19" x2="269.19" y1="92" y2="84"/><line style="stroke:#181818;stroke-width:1;" x1="272.19" x2="272.19" y1="92" y2="84"/><line style="stroke:#181818;stroke-width:1;" x1="273.19" x2="265.19" y1="88" y2="88"/><line style="stroke:#181818;stroke-width:1;" x1="375.76" x2="383.76" y1="88" y2="82"/><line style="stroke:#181818;stroke-width:1;" x1="375.76" x2="383.76" y1="88" y2="94"/><line style="stroke:#181818;stroke-width:1;" x1="375.76" x2="383.76" y1="88" y2="88"/><ellipse cx="369.76" cy="88" fill="none" rx="4" ry="4" style="stroke:#181818;stroke-width:1;"/><text fill="#000000" font-family="sans-serif" font-size="13" lengthAdjust="spacing" textLength="57.751" x="296" y="84.0669">&#1042;&#1083;&#1072;&#1076;&#1077;&#1077;&#1090;</text></g><!--link Cars to Violations--><g id="link_Cars_Violations"><path codeLine="32" d="M636.4,88 C671.09,88 682.22,88 714.54,88 " fill="none" id="Cars-Violations" style="stroke:#181818;stroke-width:1;"/><line style="stroke:#181818;stroke-width:1;" x1="632.4" x2="632.4" y1="92" y2="84"/><line style="stroke:#181818;stroke-width:1;" x1="635.4" x2="635.4" y1="92" y2="84"/><line style="stroke:#181818;stroke-width:1;" x1="636.4" x2="628.4" y1="88" y2="88"/><line style="stroke:#181818;stroke-width:1;" x1="724.54" x2="732.54" y1="88" y2="82"/><line style="stroke:#181818;stroke-width:1;" x1="724.54" x2="732.54" y1="88" y2="94"/><line style="stroke:#181818;stroke-width:1;" x1="724.54" x2="732.54" y1="88" y2="88"/><ellipse cx="718.54" cy="88" fill="none" rx="4" ry="4" style="stroke:#181818;stroke-width:1;"/><text fill="#000000" font-family="sans-serif" font-size="13" lengthAdjust="spacing" textLength="43.1006" x="659" y="84.0669">&#1048;&#1084;&#1077;&#1077;&#1090;</text></g><!--SRC=[VP71QiCm343l-GgHOo4_iEkQZR9HIWcbC7P8OwqLE7PmtD3Gxh9Fs6cViSDwwZx2-wDvZbSdK7enI7f8JpB75mrQWgBrHWCZXOKcAQ88XIRTGZnMrA2gOzX702DWBdoa0aMDqssvGWKtaANB39vc3y-MIHBxYBn4dxVH6WKxSpPUaTARSQvx2EywfhkALDillGQLspnuU7x60peGkEPvvx26H1XVI2vxWgLao4D8ejwgN1GNz5onwevsLNv1qhfQwhm2COjDfbbwdyu7xXTtwwJPO7JptpDhg_vC_sTmE2I9tCFVtMmrDk_cP3xDbpcQuyzR7BcyPuAU8p_CjwT-0G00]--></g></svg>