<svg xmlns="http://www.w3.org/2000/svg" xmlns:xlink="http://www.w3.org/1999/xlink" contentStyleType="text/css" height="212px" preserveAspectRatio="none" style="width:1330px;height:212px;background:#FFFFFF;" version="1.1" viewBox="0 0 1330 212" width="1330px" zoomAndPan="magnify"><defs/><g><!--cluster ??????????? ????????--><g id="cluster_&#1055;&#1088;&#1086;&#1075;&#1088;&#1072;&#1084;&#1084;&#1085;&#1099;&#1081; &#1082;&#1086;&#1084;&#1087;&#1083;&#1077;&#1082;&#1089;"><rect fill="none" height="100" rx="2.5" ry="2.5" style="stroke:#181818;stroke-width:1;" width="1317" x="7" y="106.5"/><text fill="#000000" font-family="sans-serif" font-size="14" font-weight="bold" lengthAdjust="spacing" textLength="195.8291" x="567.5854" y="121.4951">&#1055;&#1088;&#1086;&#1075;&#1088;&#1072;&#1084;&#1084;&#1085;&#1099;&#1081; &#1082;&#1086;&#1084;&#1087;&#1083;&#1077;&#1082;&#1089;</text></g><g id="elem_Add"><ellipse cx="1221.8603" cy="165.9721" fill="#F1F1F1" rx="85.3603" ry="19.4721" style="stroke:#181818;stroke-width:0.5;"/><text fill="#000000" font-family="sans-serif" font-size="14" lengthAdjust="spacing" textLength="131.1543" x="1156.2831" y="168.8187">&#1044;&#1086;&#1073;&#1072;&#1074;&#1080;&#1090;&#1100; &#1076;&#1072;&#1085;&#1085;&#1099;&#1077;</text></g><g id="elem_Edit"><ellipse cx="996.7986" cy="166.1597" fill="#F1F1F1" rx="103.7986" ry="23.1597" style="stroke:#181818;stroke-width:0.5;"/><text fill="#000000" font-family="sans-serif" font-size="14" lengthAdjust="spacing" textLength="172.3955" x="910.6008" y="169.0064">&#1056;&#1077;&#1076;&#1072;&#1082;&#1090;&#1080;&#1088;&#1086;&#1074;&#1072;&#1090;&#1100; &#1076;&#1072;&#1085;&#1085;&#1099;&#1077;</text></g><g id="elem_Delete"><ellipse cx="775.9144" cy="166.1829" fill="#F1F1F1" rx="81.4144" ry="18.6829" style="stroke:#181818;stroke-width:0.5;"/><text fill="#000000" font-family="sans-serif" font-size="14" lengthAdjust="spacing" textLength="121.9258" x="713.8057" y="169.4062">&#1059;&#1076;&#1072;&#1083;&#1080;&#1090;&#1100; &#1076;&#1072;&#1085;&#1085;&#1099;&#1077;</text></g><g id="elem_CreateDB"><ellipse cx="561.8488" cy="165.8698" fill="#F1F1F1" rx="97.3488" ry="21.8698" style="stroke:#181818;stroke-width:0.5;"/><text fill="#000000" font-family="sans-serif" font-size="14" lengthAdjust="spacing" textLength="158.1973" x="482.7502" y="168.7164">&#1057;&#1086;&#1079;&#1076;&#1072;&#1090;&#1100; &#1073;&#1072;&#1079;&#1091; &#1076;&#1072;&#1085;&#1085;&#1099;&#1093;</text></g><g id="elem_ConnectDB"><ellipse cx="318.1693" cy="166.2339" fill="#F1F1F1" rx="111.6693" ry="24.7339" style="stroke:#181818;stroke-width:0.5;"/><text fill="#000000" font-family="sans-serif" font-size="14" lengthAdjust="spacing" textLength="189.4854" x="223.4266" y="169.0805">&#1055;&#1086;&#1076;&#1082;&#1083;&#1102;&#1095;&#1080;&#1090;&#1100; &#1073;&#1072;&#1079;&#1091; &#1076;&#1072;&#1085;&#1085;&#1099;&#1093;</text></g><g id="elem_SearchData"><ellipse cx="96.9901" cy="165.798" fill="#F1F1F1" rx="74.4901" ry="17.298" style="stroke:#181818;stroke-width:0.5;"/><text fill="#000000" font-family="sans-serif" font-size="14" lengthAdjust="spacing" textLength="104.6992" x="41.6405" y="169.5456">&#1055;&#1086;&#1080;&#1089;&#1082; &#1076;&#1072;&#1085;&#1085;&#1099;&#1093;</text></g><!--entity User--><g id="elem_User"><ellipse cx="669.0498" cy="14" fill="#F1F1F1" rx="8" ry="8" style="stroke:#181818;stroke-width:0.5;"/><path d="M669.0498,22 L669.0498,49 M656.0498,30 L682.0498,30 M669.0498,49 L656.0498,64 M669.0498,49 L682.0498,64 " fill="none" style="stroke:#181818;stroke-width:0.5;"/><text fill="#000000" font-family="sans-serif" font-size="14" lengthAdjust="spacing" textLength="103.0996" x="617.5" y="78.4951">&#1055;&#1086;&#1083;&#1100;&#1079;&#1086;&#1074;&#1072;&#1090;&#1077;&#1083;&#1100;</text></g><!--link User to Add--><g id="link_User_Add"><path d="M720.79,47.77 C822.94,54.71 1046.75,72.42 1119,98.5 C1149.83,109.63 1176.1264,127.7176 1195.9464,143.3276 " fill="none" id="User-to-Add" style="stroke:#181818;stroke-width:1;"/><polygon fill="#181818" points="1200.66,147.04,1196.0645,138.329,1196.732,143.9463,1191.1147,144.6138,1200.66,147.04" style="stroke:#181818;stroke-width:1;"/></g><!--link User to Edit--><g id="link_User_Edit"><path d="M720.9,54.45 C763.23,63.42 824.14,78.32 875,98.5 C906.39,110.95 934.7979,126.5883 958.7479,140.9883 " fill="none" id="User-to-Edit" style="stroke:#181818;stroke-width:1;"/><polygon fill="#181818" points="963.89,144.08,958.238,136.0144,959.6049,141.5036,954.1157,142.8705,963.89,144.08" style="stroke:#181818;stroke-width:1;"/></g><!--link User to Delete--><g id="link_User_Delete"><path d="M701.98,81.64 C721.5,103.63 741.3469,125.9728 756.5969,143.1528 " fill="none" id="User-to-Delete" style="stroke:#181818;stroke-width:1;"/><polygon fill="#181818" points="760.58,147.64,757.5968,138.2538,757.2607,143.9007,751.6139,143.5646,760.58,147.64" style="stroke:#181818;stroke-width:1;"/></g><!--link User to CreateDB--><g id="link_User_CreateDB"><path d="M636.02,81.64 C617.72,102.24 599.6346,122.6141 584.3746,139.7941 " fill="none" id="User-to-CreateDB" style="stroke:#181818;stroke-width:1;"/><polygon fill="#181818" points="580.39,144.28,589.3574,140.2075,583.7105,140.5418,583.3762,134.8948,580.39,144.28" style="stroke:#181818;stroke-width:1;"/></g><!--link User to ConnectDB--><g id="link_User_ConnectDB"><path d="M617.27,53.47 C571.6,62.23 503.67,77.34 447,98.5 C414.9,110.48 385.7219,125.5451 360.5219,139.8051 " fill="none" id="User-to-ConnectDB" style="stroke:#181818;stroke-width:1;"/><polygon fill="#181818" points="355.3,142.76,365.1028,141.8089,359.6516,140.2976,361.1629,134.8463,355.3,142.76" style="stroke:#181818;stroke-width:1;"/></g><!--link User to SearchData--><g id="link_User_SearchData"><path d="M617.36,46.99 C509.99,52.71 266.24,68.64 189,98.5 C159.59,109.87 135.4367,128.9708 118.1367,144.7208 " fill="none" id="User-to-SearchData" style="stroke:#181818;stroke-width:1;"/><polygon fill="#181818" points="113.7,148.76,123.0479,145.659,117.3973,145.394,117.6623,139.7433,113.7,148.76" style="stroke:#181818;stroke-width:1;"/></g><!--SRC=[TP31IWD138RlynIX9tleAmZgzWd41nXsWmfb2zEv5S6s50-A9- -rz0LgRTbrjwslaBoHcPJE2be6PaZc__8diQdlEw0PxQdc5ohaNT6InxG9CTW1t0pG6UCmzJQ_xI6qQCQF8lkKUqbREJj-fY-WIf9R-gPQs8f7BHWQW3Dwa_I7A5TKybXAqbg2dKARTZ2uo38LlWiN_YfnBzL2E_aFwMRtNfc5VjMdIYVOGuz6fAgUIyqYY0xgq5N1aryOJnMxScWz9fSAXTMiPRYQN_dfQ7GQxUUvh4hPY9SyekglzXgjI-yIwwrvC2Ri6JgTSzr737JI61tdYOdOQPE93JIvnkW7]--></g></svg>