<svg xmlns="http://www.w3.org/2000/svg" xmlns:xlink="http://www.w3.org/1999/xlink" contentStyleType="text/css" height="709px" preserveAspectRatio="none" style="width:1474px;height:709px;background:#FFFFFF;" version="1.1" viewBox="0 0 1474 709" width="1474px" zoomAndPan="magnify"><defs/><g><rect fill="#FFFFFF" height="145.6641" style="stroke:#181818;stroke-width:1;" width="10" x="558.4277" y="91.5625"/><rect fill="#FFFFFF" height="145.6641" style="stroke:#181818;stroke-width:1;" width="10" x="558.4277" y="297.4922"/><rect fill="#FFFFFF" height="145.6641" style="stroke:#181818;stroke-width:1;" width="10" x="558.4277" y="503.4219"/><rect fill="#FFFFFF" height="87.3984" style="stroke:#181818;stroke-width:1;" width="10" x="1027.7012" y="120.6953"/><rect fill="#FFFFFF" height="87.3984" style="stroke:#181818;stroke-width:1;" width="10" x="1085.2964" y="326.625"/><rect fill="#FFFFFF" height="87.3984" style="stroke:#181818;stroke-width:1;" width="10" x="1152.0107" y="532.5547"/><rect fill="#FFFFFF" height="29.1328" style="stroke:#181818;stroke-width:1;" width="10" x="1413.5317" y="149.8281"/><rect fill="#FFFFFF" height="29.1328" style="stroke:#181818;stroke-width:1;" width="10" x="1413.5317" y="355.7578"/><rect fill="#FFFFFF" height="29.1328" style="stroke:#181818;stroke-width:1;" width="10" x="1413.5317" y="561.6875"/><rect fill="none" height="191.9297" style="stroke:#000000;stroke-width:1.5;" width="1458.9321" x="10" y="53.2969"/><rect fill="none" height="191.9297" style="stroke:#000000;stroke-width:1.5;" width="1458.9321" x="10" y="259.2266"/><rect fill="none" height="191.9297" style="stroke:#000000;stroke-width:1.5;" width="1458.9321" x="10" y="465.1563"/><line style="stroke:#181818;stroke-width:0.5;stroke-dasharray:5.0,5.0;" x1="78" x2="78" y1="36.2969" y2="674.0859"/><line style="stroke:#181818;stroke-width:0.5;stroke-dasharray:5.0,5.0;" x1="562.7173" x2="562.7173" y1="36.2969" y2="674.0859"/><line style="stroke:#181818;stroke-width:0.5;stroke-dasharray:5.0,5.0;" x1="1032.1611" x2="1032.1611" y1="36.2969" y2="674.0859"/><line style="stroke:#181818;stroke-width:0.5;stroke-dasharray:5.0,5.0;" x1="1090.2412" x2="1090.2412" y1="36.2969" y2="674.0859"/><line style="stroke:#181818;stroke-width:0.5;stroke-dasharray:5.0,5.0;" x1="1156.3516" x2="1156.3516" y1="36.2969" y2="674.0859"/><line style="stroke:#181818;stroke-width:0.5;stroke-dasharray:5.0,5.0;" x1="1418.1313" x2="1418.1313" y1="36.2969" y2="674.0859"/><rect fill="#E2E2F0" height="30.2969" rx="2.5" ry="2.5" style="stroke:#181818;stroke-width:0.5;" width="117.0996" x="20" y="5"/><text fill="#000000" font-family="sans-serif" font-size="14" lengthAdjust="spacing" textLength="103.0996" x="27" y="24.9951">&#1055;&#1086;&#1083;&#1100;&#1079;&#1086;&#1074;&#1072;&#1090;&#1077;&#1083;&#1100;</text><rect fill="#E2E2F0" height="30.2969" rx="2.5" ry="2.5" style="stroke:#181818;stroke-width:0.5;" width="117.0996" x="20" y="673.0859"/><text fill="#000000" font-family="sans-serif" font-size="14" lengthAdjust="spacing" textLength="103.0996" x="27" y="693.0811">&#1055;&#1086;&#1083;&#1100;&#1079;&#1086;&#1074;&#1072;&#1090;&#1077;&#1083;&#1100;</text><rect fill="#E2E2F0" height="30.2969" rx="2.5" ry="2.5" style="stroke:#181818;stroke-width:0.5;" width="47.4209" x="539.7173" y="5"/><text fill="#000000" font-family="sans-serif" font-size="14" lengthAdjust="spacing" textLength="33.4209" x="546.7173" y="24.9951">Main</text><rect fill="#E2E2F0" height="30.2969" rx="2.5" ry="2.5" style="stroke:#181818;stroke-width:0.5;" width="47.4209" x="539.7173" y="673.0859"/><text fill="#000000" font-family="sans-serif" font-size="14" lengthAdjust="spacing" textLength="33.4209" x="546.7173" y="693.0811">Main</text><rect fill="#E2E2F0" height="30.2969" rx="2.5" ry="2.5" style="stroke:#181818;stroke-width:0.5;" width="57.0801" x="1004.1611" y="5"/><text fill="#000000" font-family="sans-serif" font-size="14" lengthAdjust="spacing" textLength="43.0801" x="1011.1611" y="24.9951">Driver</text><rect fill="#E2E2F0" height="30.2969" rx="2.5" ry="2.5" style="stroke:#181818;stroke-width:0.5;" width="57.0801" x="1004.1611" y="673.0859"/><text fill="#000000" font-family="sans-serif" font-size="14" lengthAdjust="spacing" textLength="43.0801" x="1011.1611" y="693.0811">Driver</text><rect fill="#E2E2F0" height="30.2969" rx="2.5" ry="2.5" style="stroke:#181818;stroke-width:0.5;" width="38.1104" x="1071.2412" y="5"/><text fill="#000000" font-family="sans-serif" font-size="14" lengthAdjust="spacing" textLength="24.1104" x="1078.2412" y="24.9951">Car</text><rect fill="#E2E2F0" height="30.2969" rx="2.5" ry="2.5" style="stroke:#181818;stroke-width:0.5;" width="38.1104" x="1071.2412" y="673.0859"/><text fill="#000000" font-family="sans-serif" font-size="14" lengthAdjust="spacing" textLength="24.1104" x="1078.2412" y="693.0811">Car</text><rect fill="#E2E2F0" height="30.2969" rx="2.5" ry="2.5" style="stroke:#181818;stroke-width:0.5;" width="75.3184" x="1119.3516" y="5"/><text fill="#000000" font-family="sans-serif" font-size="14" lengthAdjust="spacing" textLength="61.3184" x="1126.3516" y="24.9951">Violation</text><rect fill="#E2E2F0" height="30.2969" rx="2.5" ry="2.5" style="stroke:#181818;stroke-width:0.5;" width="75.3184" x="1119.3516" y="673.0859"/><text fill="#000000" font-family="sans-serif" font-size="14" lengthAdjust="spacing" textLength="61.3184" x="1126.3516" y="693.0811">Violation</text><rect fill="#E2E2F0" height="30.2969" rx="2.5" ry="2.5" style="stroke:#181818;stroke-width:0.5;" width="80.8008" x="1378.1313" y="5"/><text fill="#000000" font-family="sans-serif" font-size="14" lengthAdjust="spacing" textLength="66.8008" x="1385.1313" y="24.9951">Database</text><rect fill="#E2E2F0" height="30.2969" rx="2.5" ry="2.5" style="stroke:#181818;stroke-width:0.5;" width="80.8008" x="1378.1313" y="673.0859"/><text fill="#000000" font-family="sans-serif" font-size="14" lengthAdjust="spacing" textLength="66.8008" x="1385.1313" y="693.0811">Database</text><rect fill="#FFFFFF" height="145.6641" style="stroke:#181818;stroke-width:1;" width="10" x="558.4277" y="91.5625"/><rect fill="#FFFFFF" height="145.6641" style="stroke:#181818;stroke-width:1;" width="10" x="558.4277" y="297.4922"/><rect fill="#FFFFFF" height="145.6641" style="stroke:#181818;stroke-width:1;" width="10" x="558.4277" y="503.4219"/><rect fill="#FFFFFF" height="87.3984" style="stroke:#181818;stroke-width:1;" width="10" x="1027.7012" y="120.6953"/><rect fill="#FFFFFF" height="87.3984" style="stroke:#181818;stroke-width:1;" width="10" x="1085.2964" y="326.625"/><rect fill="#FFFFFF" height="87.3984" style="stroke:#181818;stroke-width:1;" width="10" x="1152.0107" y="532.5547"/><rect fill="#FFFFFF" height="29.1328" style="stroke:#181818;stroke-width:1;" width="10" x="1413.5317" y="149.8281"/><rect fill="#FFFFFF" height="29.1328" style="stroke:#181818;stroke-width:1;" width="10" x="1413.5317" y="355.7578"/><rect fill="#FFFFFF" height="29.1328" style="stroke:#181818;stroke-width:1;" width="10" x="1413.5317" y="561.6875"/><path d="M10,53.2969 L222.3433,53.2969 L222.3433,60.4297 L212.3433,70.4297 L10,70.4297 L10,53.2969 " fill="#EEEEEE" style="stroke:#000000;stroke-width:1.5;"/><rect fill="none" height="191.9297" style="stroke:#000000;stroke-width:1.5;" width="1458.9321" x="10" y="53.2969"/><text fill="#000000" font-family="sans-serif" font-size="13" font-weight="bold" lengthAdjust="spacing" textLength="167.3433" x="25" y="66.3638">&#1044;&#1086;&#1073;&#1072;&#1074;&#1083;&#1077;&#1085;&#1080;&#1077; &#1074;&#1086;&#1076;&#1080;&#1090;&#1077;&#1083;&#1103;</text><polygon fill="#181818" points="546.4277,87.5625,556.4277,91.5625,546.4277,95.5625,550.4277,91.5625" style="stroke:#181818;stroke-width:1;"/><line style="stroke:#181818;stroke-width:1;" x1="78.5498" x2="552.4277" y1="91.5625" y2="91.5625"/><text fill="#000000" font-family="sans-serif" font-size="13" lengthAdjust="spacing" textLength="421.5098" x="85.5498" y="86.4966">addDriver(name, gender, birthDate, licenseNumber, expiryDate)</text><polygon fill="#181818" points="1015.7012,116.6953,1025.7012,120.6953,1015.7012,124.6953,1019.7012,120.6953" style="stroke:#181818;stroke-width:1;"/><line style="stroke:#181818;stroke-width:1;" x1="568.4277" x2="1021.7012" y1="120.6953" y2="120.6953"/><text fill="#000000" font-family="sans-serif" font-size="13" lengthAdjust="spacing" textLength="440.2734" x="575.4277" y="115.6294">validateData(name, gender, birthDate, licenseNumber, expiryDate)</text><polygon fill="#181818" points="1401.5317,145.8281,1411.5317,149.8281,1401.5317,153.8281,1405.5317,149.8281" style="stroke:#181818;stroke-width:1;"/><line style="stroke:#181818;stroke-width:1;" x1="1037.7012" x2="1407.5317" y1="149.8281" y2="149.8281"/><text fill="#000000" font-family="sans-serif" font-size="13" lengthAdjust="spacing" textLength="215.5854" x="1044.7012" y="144.7622">INSERT INTO Drivers VALUES (...)</text><polygon fill="#181818" points="1048.7012,174.9609,1038.7012,178.9609,1048.7012,182.9609,1044.7012,178.9609" style="stroke:#181818;stroke-width:1;"/><line style="stroke:#181818;stroke-width:1;stroke-dasharray:2.0,2.0;" x1="1042.7012" x2="1417.5317" y1="178.9609" y2="178.9609"/><text fill="#000000" font-family="sans-serif" font-size="13" lengthAdjust="spacing" textLength="137.395" x="1054.7012" y="173.895">&#1059;&#1089;&#1087;&#1077;&#1096;&#1085;&#1086; &#1076;&#1086;&#1073;&#1072;&#1074;&#1083;&#1077;&#1085;&#1086;</text><polygon fill="#181818" points="579.4277,204.0938,569.4277,208.0938,579.4277,212.0938,575.4277,208.0938" style="stroke:#181818;stroke-width:1;"/><line style="stroke:#181818;stroke-width:1;stroke-dasharray:2.0,2.0;" x1="573.4277" x2="1031.7012" y1="208.0938" y2="208.0938"/><text fill="#000000" font-family="sans-serif" font-size="13" lengthAdjust="spacing" textLength="26.6792" x="585.4277" y="203.0278">true</text><polygon fill="#181818" points="89.5498,233.2266,79.5498,237.2266,89.5498,241.2266,85.5498,237.2266" style="stroke:#181818;stroke-width:1;"/><line style="stroke:#181818;stroke-width:1;stroke-dasharray:2.0,2.0;" x1="83.5498" x2="562.4277" y1="237.2266" y2="237.2266"/><text fill="#000000" font-family="sans-serif" font-size="13" lengthAdjust="spacing" textLength="131.8979" x="95.5498" y="232.1606">&#1054;&#1087;&#1077;&#1088;&#1072;&#1094;&#1080;&#1103; &#1091;&#1089;&#1087;&#1077;&#1096;&#1085;&#1072;</text><path d="M10,259.2266 L240.4341,259.2266 L240.4341,266.3594 L230.4341,276.3594 L10,276.3594 L10,259.2266 " fill="#EEEEEE" style="stroke:#000000;stroke-width:1.5;"/><rect fill="none" height="191.9297" style="stroke:#000000;stroke-width:1.5;" width="1458.9321" x="10" y="259.2266"/><text fill="#000000" font-family="sans-serif" font-size="13" font-weight="bold" lengthAdjust="spacing" textLength="185.4341" x="25" y="272.2935">&#1044;&#1086;&#1073;&#1072;&#1074;&#1083;&#1077;&#1085;&#1080;&#1077; &#1072;&#1074;&#1090;&#1086;&#1084;&#1086;&#1073;&#1080;&#1083;&#1103;</text><polygon fill="#181818" points="546.4277,293.4922,556.4277,297.4922,546.4277,301.4922,550.4277,297.4922" style="stroke:#181818;stroke-width:1;"/><line style="stroke:#181818;stroke-width:1;" x1="78.5498" x2="552.4277" y1="297.4922" y2="297.4922"/><text fill="#000000" font-family="sans-serif" font-size="13" lengthAdjust="spacing" textLength="460.8779" x="85.5498" y="292.4263">addCar(vin, licensePlate, color, model, inspectionDate, insuranceDate)</text><polygon fill="#181818" points="1073.2964,322.625,1083.2964,326.625,1073.2964,330.625,1077.2964,326.625" style="stroke:#181818;stroke-width:1;"/><line style="stroke:#181818;stroke-width:1;" x1="568.4277" x2="1079.2964" y1="326.625" y2="326.625"/><text fill="#000000" font-family="sans-serif" font-size="13" lengthAdjust="spacing" textLength="497.2563" x="575.4277" y="321.5591">validateData(vin, licensePlate, color, model, inspectionDate, insuranceDate)</text><polygon fill="#181818" points="1401.5317,351.7578,1411.5317,355.7578,1401.5317,359.7578,1405.5317,355.7578" style="stroke:#181818;stroke-width:1;"/><line style="stroke:#181818;stroke-width:1;" x1="1095.2964" x2="1407.5317" y1="355.7578" y2="355.7578"/><text fill="#000000" font-family="sans-serif" font-size="13" lengthAdjust="spacing" textLength="197.9707" x="1102.2964" y="350.6919">INSERT INTO Cars VALUES (...)</text><polygon fill="#181818" points="1106.2964,380.8906,1096.2964,384.8906,1106.2964,388.8906,1102.2964,384.8906" style="stroke:#181818;stroke-width:1;"/><line style="stroke:#181818;stroke-width:1;stroke-dasharray:2.0,2.0;" x1="1100.2964" x2="1417.5317" y1="384.8906" y2="384.8906"/><text fill="#000000" font-family="sans-serif" font-size="13" lengthAdjust="spacing" textLength="137.395" x="1112.2964" y="379.8247">&#1059;&#1089;&#1087;&#1077;&#1096;&#1085;&#1086; &#1076;&#1086;&#1073;&#1072;&#1074;&#1083;&#1077;&#1085;&#1086;</text><polygon fill="#181818" points="579.4277,410.0234,569.4277,414.0234,579.4277,418.0234,575.4277,414.0234" style="stroke:#181818;stroke-width:1;"/><line style="stroke:#181818;stroke-width:1;stroke-dasharray:2.0,2.0;" x1="573.4277" x2="1089.2964" y1="414.0234" y2="414.0234"/><text fill="#000000" font-family="sans-serif" font-size="13" lengthAdjust="spacing" textLength="26.6792" x="585.4277" y="408.9575">true</text><polygon fill="#181818" points="89.5498,439.1563,79.5498,443.1563,89.5498,447.1563,85.5498,443.1563" style="stroke:#181818;stroke-width:1;"/><line style="stroke:#181818;stroke-width:1;stroke-dasharray:2.0,2.0;" x1="83.5498" x2="562.4277" y1="443.1563" y2="443.1563"/><text fill="#000000" font-family="sans-serif" font-size="13" lengthAdjust="spacing" textLength="131.8979" x="95.5498" y="438.0903">&#1054;&#1087;&#1077;&#1088;&#1072;&#1094;&#1080;&#1103; &#1091;&#1089;&#1087;&#1077;&#1096;&#1085;&#1072;</text><path d="M10,465.1563 L235.9526,465.1563 L235.9526,472.2891 L225.9526,482.2891 L10,482.2891 L10,465.1563 " fill="#EEEEEE" style="stroke:#000000;stroke-width:1.5;"/><rect fill="none" height="191.9297" style="stroke:#000000;stroke-width:1.5;" width="1458.9321" x="10" y="465.1563"/><text fill="#000000" font-family="sans-serif" font-size="13" font-weight="bold" lengthAdjust="spacing" textLength="180.9526" x="25" y="478.2231">&#1044;&#1086;&#1073;&#1072;&#1074;&#1083;&#1077;&#1085;&#1080;&#1077; &#1085;&#1072;&#1088;&#1091;&#1096;&#1077;&#1085;&#1080;&#1103;</text><polygon fill="#181818" points="546.4277,499.4219,556.4277,503.4219,546.4277,507.4219,550.4277,503.4219" style="stroke:#181818;stroke-width:1;"/><line style="stroke:#181818;stroke-width:1;" x1="78.5498" x2="552.4277" y1="503.4219" y2="503.4219"/><text fill="#000000" font-family="sans-serif" font-size="13" lengthAdjust="spacing" textLength="244.3276" x="85.5498" y="498.356">addViolation(licensePlate, date, type)</text><polygon fill="#181818" points="1140.0107,528.5547,1150.0107,532.5547,1140.0107,536.5547,1144.0107,532.5547" style="stroke:#181818;stroke-width:1;"/><line style="stroke:#181818;stroke-width:1;" x1="568.4277" x2="1146.0107" y1="532.5547" y2="532.5547"/><text fill="#000000" font-family="sans-serif" font-size="13" lengthAdjust="spacing" textLength="246.1558" x="575.4277" y="527.4888">validateData(licensePlate, date, type)</text><polygon fill="#181818" points="1401.5317,557.6875,1411.5317,561.6875,1401.5317,565.6875,1405.5317,561.6875" style="stroke:#181818;stroke-width:1;"/><line style="stroke:#181818;stroke-width:1;" x1="1162.0107" x2="1407.5317" y1="561.6875" y2="561.6875"/><text fill="#000000" font-family="sans-serif" font-size="13" lengthAdjust="spacing" textLength="232.521" x="1169.0107" y="556.6216">INSERT INTO Violations VALUES (...)</text><polygon fill="#181818" points="1173.0107,586.8203,1163.0107,590.8203,1173.0107,594.8203,1169.0107,590.8203" style="stroke:#181818;stroke-width:1;"/><line style="stroke:#181818;stroke-width:1;stroke-dasharray:2.0,2.0;" x1="1167.0107" x2="1417.5317" y1="590.8203" y2="590.8203"/><text fill="#000000" font-family="sans-serif" font-size="13" lengthAdjust="spacing" textLength="137.395" x="1179.0107" y="585.7544">&#1059;&#1089;&#1087;&#1077;&#1096;&#1085;&#1086; &#1076;&#1086;&#1073;&#1072;&#1074;&#1083;&#1077;&#1085;&#1086;</text><polygon fill="#181818" points="579.4277,615.9531,569.4277,619.9531,579.4277,623.9531,575.4277,619.9531" style="stroke:#181818;stroke-width:1;"/><line style="stroke:#181818;stroke-width:1;stroke-dasharray:2.0,2.0;" x1="573.4277" x2="1156.0107" y1="619.9531" y2="619.9531"/><text fill="#000000" font-family="sans-serif" font-size="13" lengthAdjust="spacing" textLength="26.6792" x="585.4277" y="614.8872">true</text><polygon fill="#181818" points="89.5498,645.0859,79.5498,649.0859,89.5498,653.0859,85.5498,649.0859" style="stroke:#181818;stroke-width:1;"/><line style="stroke:#181818;stroke-width:1;stroke-dasharray:2.0,2.0;" x1="83.5498" x2="562.4277" y1="649.0859" y2="649.0859"/><text fill="#000000" font-family="sans-serif" font-size="13" lengthAdjust="spacing" textLength="131.8979" x="95.5498" y="644.02">&#1054;&#1087;&#1077;&#1088;&#1072;&#1094;&#1080;&#1103; &#1091;&#1089;&#1087;&#1077;&#1096;&#1085;&#1072;</text><!--SRC=[jLIxJiCm5Dtp5LQd8BNz00Oa2Wn8K11jsTt4AfRI978Uebi12NL0wi8C0pzG41ML2k4Nd3_Ysexog9gMYhB4lZxskIVdE74nywb1NMpxgCAVUSJdyGF_WF6DJ-9RFXLr1M4FTJp2D3U__HHJMq9YKeGE6Gq9aw2Q5k43h30OYy0bTIpiKqVnfjK2EVPn5tj4qJSqhSUSm4Ny4LI_yWaeduFkBpxZKmH5nD_vB7cLiIPU0zNsf6QqYx1fAe6wZVkaYdh4DWcheYvb_XKqWYMB6iJsI3FeTmL2hbtA1WBQqR3Xqn1coW592TIA4CX3R54JO27uR_o9YGcpwD40_kDcw-YY3KFxBDa1dksVT8vQIA_Nw_dp3GrErFBY-4jymx_vD1w1LH42auhkHPf92kUJtfbtFWj8OPCIgMo0RT9gQFGasmpXFjr346CKt-KwJ_8CqaPmQ7MaK4AS4V-KuAmaLhXRUaZjrDzpIxfjE9O3BlSTarXLH6tF9OQuOYeBg0E6ROEioXUO5yFTMYFnHGZ-PH73-lfybRXDmvKjovCLgluzLZWK3u5af9QMXfh-4VIYsQPy-WEtDBJqv69qlo3A_aCPoxA0KdHzJ7avcuQL4r4UMQPv2y7z0000]--></g></svg>