<svg xmlns="http://www.w3.org/2000/svg" xmlns:xlink="http://www.w3.org/1999/xlink" contentStyleType="text/css" height="715px" preserveAspectRatio="none" style="width:424px;height:715px;background:#FFFFFF;" version="1.1" viewBox="0 0 424 715" width="424px" zoomAndPan="magnify"><defs/><g><!--cluster GAI--><g id="cluster_GAI"><path d="M8.5,6 L112.7295,6 A3.75,3.75 0 0 1 115.2295,8.5 L122.2295,28.2969 L359.5,28.2969 A2.5,2.5 0 0 1 362,30.7969 L362,705.5 A2.5,2.5 0 0 1 359.5,708 L8.5,708 A2.5,2.5 0 0 1 6,705.5 L6,8.5 A2.5,2.5 0 0 1 8.5,6 " fill="none" style="stroke:#000000;stroke-width:1.5;"/><line style="stroke:#000000;stroke-width:1.5;" x1="6" x2="122.2295" y1="28.2969" y2="28.2969"/><text fill="#000000" font-family="sans-serif" font-size="14" font-weight="bold" lengthAdjust="spacing" textLength="103.2295" x="10" y="20.9951">&#1057;&#1080;&#1089;&#1090;&#1077;&#1084;&#1072; &#1043;&#1040;&#1048;</text></g><!--class Driver--><g id="elem_Driver"><rect codeLine="3" fill="#F1F1F1" height="129.4844" id="Driver" rx="2.5" ry="2.5" style="stroke:#181818;stroke-width:0.5;" width="143.7354" x="22" y="166"/><ellipse cx="55.3687" cy="182" fill="#ADD1B2" rx="11" ry="11" style="stroke:#181818;stroke-width:1;"/><path d="M59.4781,188 L51.7593,188 L51.7593,175.6094 L59.4781,175.6094 L59.4781,177.7656 L54.2125,177.7656 L54.2125,180.4375 L58.9781,180.4375 L58.9781,182.5938 L54.2125,182.5938 L54.2125,185.8438 L59.4781,185.8438 L59.4781,188 Z " fill="#000000"/><text fill="#000000" font-family="sans-serif" font-size="14" lengthAdjust="spacing" textLength="70.916" x="73.4506" y="186.8467">&#1042;&#1086;&#1076;&#1080;&#1090;&#1077;&#1083;&#1100;</text><line style="stroke:#181818;stroke-width:0.5;" x1="23" x2="164.7354" y1="198" y2="198"/><text fill="#000000" font-family="sans-serif" font-size="14" lengthAdjust="spacing" textLength="33.5439" x="28" y="214.9951">&#1060;&#1048;&#1054;</text><text fill="#000000" font-family="sans-serif" font-size="14" lengthAdjust="spacing" textLength="28.041" x="28" y="231.292">&#1055;&#1086;&#1083;</text><text fill="#000000" font-family="sans-serif" font-size="14" lengthAdjust="spacing" textLength="115.7324" x="28" y="247.5889">&#1044;&#1072;&#1090;&#1072; &#1088;&#1086;&#1078;&#1076;&#1077;&#1085;&#1080;&#1103;</text><text fill="#000000" font-family="sans-serif" font-size="14" lengthAdjust="spacing" textLength="69.7402" x="28" y="263.8857">&#1053;&#1086;&#1084;&#1077;&#1088; &#1042;&#1059;</text><text fill="#000000" font-family="sans-serif" font-size="14" lengthAdjust="spacing" textLength="131.7354" x="28" y="280.1826">&#1057;&#1088;&#1086;&#1082; &#1076;&#1077;&#1081;&#1089;&#1090;&#1074;&#1080;&#1103; &#1042;&#1059;</text><line style="stroke:#181818;stroke-width:0.5;" x1="23" x2="164.7354" y1="287.4844" y2="287.4844"/></g><!--class Car--><g id="elem_Car"><rect codeLine="11" fill="#F1F1F1" height="145.7813" id="Car" rx="2.5" ry="2.5" style="stroke:#181818;stroke-width:0.5;" width="124.0547" x="88" y="372"/><ellipse cx="104.5513" cy="388" fill="#ADD1B2" rx="11" ry="11" style="stroke:#181818;stroke-width:1;"/><path d="M108.6606,394 L100.9419,394 L100.9419,381.6094 L108.6606,381.6094 L108.6606,383.7656 L103.395,383.7656 L103.395,386.4375 L108.1606,386.4375 L108.1606,388.5938 L103.395,388.5938 L103.395,391.8438 L108.6606,391.8438 L108.6606,394 Z " fill="#000000"/><text fill="#000000" font-family="sans-serif" font-size="14" lengthAdjust="spacing" textLength="88.6074" x="118.896" y="392.8467">&#1040;&#1074;&#1090;&#1086;&#1084;&#1086;&#1073;&#1080;&#1083;&#1100;</text><line style="stroke:#181818;stroke-width:0.5;" x1="89" x2="211.0547" y1="404" y2="404"/><text fill="#000000" font-family="sans-serif" font-size="14" lengthAdjust="spacing" textLength="24.1787" x="94" y="420.9951">VIN</text><text fill="#000000" font-family="sans-serif" font-size="14" lengthAdjust="spacing" textLength="112.0547" x="94" y="437.292">&#1053;&#1086;&#1084;&#1077;&#1088;&#1085;&#1086;&#1081; &#1079;&#1085;&#1072;&#1082;</text><text fill="#000000" font-family="sans-serif" font-size="14" lengthAdjust="spacing" textLength="35.8887" x="94" y="453.5889">&#1062;&#1074;&#1077;&#1090;</text><text fill="#000000" font-family="sans-serif" font-size="14" lengthAdjust="spacing" textLength="56.1367" x="94" y="469.8857">&#1052;&#1086;&#1076;&#1077;&#1083;&#1100;</text><text fill="#000000" font-family="sans-serif" font-size="14" lengthAdjust="spacing" textLength="100.2285" x="94" y="486.1826">&#1057;&#1090;&#1088;&#1072;&#1093;&#1086;&#1074;&#1082;&#1072; &#1076;&#1086;</text><text fill="#000000" font-family="sans-serif" font-size="14" lengthAdjust="spacing" textLength="100.5771" x="94" y="502.4795">&#1058;&#1077;&#1093;&#1086;&#1089;&#1084;&#1086;&#1090;&#1088; &#1076;&#1086;</text><line style="stroke:#181818;stroke-width:0.5;" x1="89" x2="211.0547" y1="509.7813" y2="509.7813"/></g><!--class Violation--><g id="elem_Violation"><rect codeLine="20" fill="#F1F1F1" height="96.8906" id="Violation" rx="2.5" ry="2.5" style="stroke:#181818;stroke-width:0.5;" width="126.2559" x="148" y="595"/><ellipse cx="167.3598" cy="611" fill="#ADD1B2" rx="11" ry="11" style="stroke:#181818;stroke-width:1;"/><path d="M171.4692,617 L163.7504,617 L163.7504,604.6094 L171.4692,604.6094 L171.4692,606.7656 L166.2036,606.7656 L166.2036,609.4375 L170.9692,609.4375 L170.9692,611.5938 L166.2036,611.5938 L166.2036,614.8438 L171.4692,614.8438 L171.4692,617 Z " fill="#000000"/><text fill="#000000" font-family="sans-serif" font-size="14" lengthAdjust="spacing" textLength="84.5674" x="182.3287" y="615.8467">&#1053;&#1072;&#1088;&#1091;&#1096;&#1077;&#1085;&#1080;&#1077;</text><line style="stroke:#181818;stroke-width:0.5;" x1="149" x2="273.2559" y1="627" y2="627"/><text fill="#000000" font-family="sans-serif" font-size="14" lengthAdjust="spacing" textLength="112.8613" x="154" y="643.9951">&#1053;&#1086;&#1084;&#1077;&#1088; &#1084;&#1072;&#1096;&#1080;&#1085;&#1099;</text><text fill="#000000" font-family="sans-serif" font-size="14" lengthAdjust="spacing" textLength="36.251" x="154" y="660.292">&#1044;&#1072;&#1090;&#1072;</text><text fill="#000000" font-family="sans-serif" font-size="14" lengthAdjust="spacing" textLength="114.2559" x="154" y="676.5889">&#1058;&#1080;&#1087; &#1085;&#1072;&#1088;&#1091;&#1096;&#1077;&#1085;&#1080;&#1103;</text><line style="stroke:#181818;stroke-width:0.5;" x1="149" x2="273.2559" y1="683.8906" y2="683.8906"/></g><!--class User--><g id="elem_User"><rect codeLine="26" fill="#F1F1F1" height="48" id="User" rx="2.5" ry="2.5" style="stroke:#181818;stroke-width:0.5;" width="135.0996" x="168.5" y="41"/><ellipse cx="183.5" cy="57" fill="#ADD1B2" rx="11" ry="11" style="stroke:#181818;stroke-width:1;"/><path d="M187.6094,63 L179.8906,63 L179.8906,50.6094 L187.6094,50.6094 L187.6094,52.7656 L182.3438,52.7656 L182.3438,55.4375 L187.1094,55.4375 L187.1094,57.5938 L182.3438,57.5938 L182.3438,60.8438 L187.6094,60.8438 L187.6094,63 Z " fill="#000000"/><text fill="#000000" font-family="sans-serif" font-size="14" lengthAdjust="spacing" textLength="103.0996" x="197.5" y="61.8467">&#1055;&#1086;&#1083;&#1100;&#1079;&#1086;&#1074;&#1072;&#1090;&#1077;&#1083;&#1100;</text><line style="stroke:#181818;stroke-width:0.5;" x1="169.5" x2="302.5996" y1="73" y2="73"/><line style="stroke:#181818;stroke-width:0.5;" x1="169.5" x2="302.5996" y1="81" y2="81"/></g><!--link Driver to Car--><g id="link_Driver_Car"><path codeLine="29" d="M112.8399,302.9956 C119.1899,327.0756 119.8219,329.5046 126.3619,354.3146 " fill="none" id="Driver-Car" style="stroke:#181818;stroke-width:1;"/><line style="stroke:#181818;stroke-width:1;" x1="107.9522" x2="115.6877" y1="300.1477" y2="298.1078"/><line style="stroke:#181818;stroke-width:1;" x1="108.7171" x2="116.4527" y1="303.0486" y2="301.0087"/><line style="stroke:#181818;stroke-width:1;" x1="112.8399" x2="110.8" y1="302.9956" y2="295.26"/><line style="stroke:#181818;stroke-width:1;" x1="128.9108" x2="136.7518" y1="363.9843" y2="370.1906"/><line style="stroke:#181818;stroke-width:1;" x1="128.9108" x2="125.1482" y1="363.9843" y2="373.2494"/><line style="stroke:#181818;stroke-width:1;" x1="128.9108" x2="130.95" y1="363.9843" y2="371.72"/><ellipse cx="127.3815" cy="358.1824" fill="none" rx="4" ry="4" style="stroke:#181818;stroke-width:1;"/><text fill="#000000" font-family="sans-serif" font-size="13" lengthAdjust="spacing" textLength="56.4941" x="123" y="338.0669">&#1074;&#1083;&#1072;&#1076;&#1077;&#1077;&#1090;</text></g><!--link Car to Violation--><g id="link_Car_Violation"><path codeLine="30" d="M161.5215,526.1081 C164.6115,541.7381 167.01,550.16 172,565 C175.31,574.85 171.8781,568.7939 176.4881,578.3939 " fill="none" id="Car-Violation" style="stroke:#181818;stroke-width:1;"/><line style="stroke:#181818;stroke-width:1;" x1="156.8217" x2="164.6698" y1="522.9598" y2="521.4083"/><line style="stroke:#181818;stroke-width:1;" x1="157.4036" x2="165.2517" y1="525.9029" y2="524.3513"/><line style="stroke:#181818;stroke-width:1;" x1="161.5215" x2="159.97" y1="526.1081" y2="518.26"/><line style="stroke:#181818;stroke-width:1;" x1="180.8169" x2="189.6887" y1="587.4084" y2="592.0227"/><line style="stroke:#181818;stroke-width:1;" x1="180.8169" x2="178.8713" y1="587.4084" y2="597.2173"/><line style="stroke:#181818;stroke-width:1;" x1="180.8169" x2="184.28" y1="587.4084" y2="594.62"/><ellipse cx="178.2196" cy="581.9997" fill="none" rx="4" ry="4" style="stroke:#181818;stroke-width:1;"/><text fill="#000000" font-family="sans-serif" font-size="13" lengthAdjust="spacing" textLength="65.2412" x="173" y="561.0669">&#1089;&#1074;&#1103;&#1079;&#1072;&#1085;&#1086; &#1089;</text></g><!--link User to Driver--><g id="link_User_Driver"><path codeLine="32" d="M185.58,89.15 C171.84,97.18 157.8,107.19 147,119 C134.66,132.51 132.381,133.1691 124.501,149.6591 " fill="none" id="User-to-Driver" style="stroke:#181818;stroke-width:1;stroke-dasharray:7.0,7.0;"/><polygon fill="none" points="116.74,165.9,129.9146,152.2461,119.0873,147.0721,116.74,165.9" style="stroke:#181818;stroke-width:1;"/><text fill="#000000" font-family="sans-serif" font-size="13" lengthAdjust="spacing" textLength="78.1968" x="148" y="132.0669">&#1080;&#1089;&#1087;&#1086;&#1083;&#1100;&#1079;&#1091;&#1077;&#1090;</text></g><!--link User to Car--><g id="link_User_Car"><path codeLine="33" d="M235.13,89.1 C234.42,102.78 233.17,120.43 231,136 C218.08,228.63 213.96,252.14 188,342 C185.19,351.71 187.818,344.8207 184.368,354.7307 " fill="none" id="User-to-Car" style="stroke:#181818;stroke-width:1;stroke-dasharray:7.0,7.0;"/><polygon fill="none" points="178.45,371.73,190.0345,356.7034,178.7016,352.758,178.45,371.73" style="stroke:#181818;stroke-width:1;"/><text fill="#000000" font-family="sans-serif" font-size="13" lengthAdjust="spacing" textLength="71.7729" x="227" y="235.0669">&#1091;&#1087;&#1088;&#1072;&#1074;&#1083;&#1103;&#1077;&#1090;</text></g><!--link User to Violation--><g id="link_User_Violation"><path codeLine="34" d="M258.83,89.12 C275.79,108.02 297.56,136.38 307,166 C355.84,319.16 286.7656,492.0737 244.1656,578.8037 " fill="none" id="User-to-Violation" style="stroke:#181818;stroke-width:1;stroke-dasharray:7.0,7.0;"/><polygon fill="none" points="236.23,594.96,249.5511,581.4489,238.7802,576.1585,236.23,594.96" style="stroke:#181818;stroke-width:1;"/><text fill="#000000" font-family="sans-serif" font-size="13" lengthAdjust="spacing" textLength="96.3574" x="320" y="338.0669">&#1082;&#1086;&#1085;&#1090;&#1088;&#1086;&#1083;&#1080;&#1088;&#1091;&#1077;&#1090;</text></g><!--SRC=[NLB1IW9H5Dtx5HVt-W4kWYW8D-roFuJ4K6Ye1A72E1842KgrS9655QrVWrFZZ8w_SDyVTTvxyz9nLc_kFVUSyyvzryxvfNDHfoBFEP83wNF8AnR4JppXQP6SDfqSLgbRA13L6nstSmle8wUy05o14pdIgEEMUrDl0KZu-9Ed_6gERm0dvlZC0ZE2f8VQ3oX2NeDcRBep55SSIeyWy65gSmsDIMENsb-W9Yoad_CruG00nPBoDqV_teuSQwnMFTqJWuEKbyI_E0YEJVSBAg7qpS-Blgs-gJNbOqx8EpG2ZbLQ2qvDxnrpgCk1Cg5mjfTtEiEu9uVotaJ0eVPPSvjNJiTjDcoCEv5WAK17l9OFkJ2jRCGRKbVOfTN9veNrDkG8rrNUHMw5P-riWNeaMsYlLoerkph22c4aGKeg3HEFAcU8hVaAuVg174D4g7ZngmWrVRdSEx3KuCEJuusr98SPwnPfPD7OgCILF6ZtGRlAM4UAZ7pzRXBmUnbh_my0]--></g></svg>